HIERARCHY
ROOT Root
{
  OFFSET 0.0 0.0 0.0
  CHANNELS 6 Xposition Yposition Zposition Zrotation Yrotation Xrotation
  JOINT Hips
  {
    OFFSET 0.0 100.0 0.0
    CHANNELS 6 Xposition Yposition Zposition Zrotation Yrotation Xrotation
    JOINT Spine1
    {
      OFFSET 5.003913 -0.037094 -0.013727
      CHANNELS 3 Zrotation Yrotation Xrotation
      JOINT Spine2
      {
        OFFSET 7.125363 -1e-06 0.0
        CHANNELS 3 Zrotation Yrotation Xrotation
        JOINT Chest
        {
          OFFSET 7.594027 1e-06 0.0
          CHANNELS 3 Zrotation Yrotation Xrotation
          JOINT Neck1
          {
            OFFSET 26.313086 -0.460272 -0.181672
            CHANNELS 3 Zrotation Yrotation Xrotation
            JOINT Neck2
            {
              OFFSET 8.045911 0.0 0.0
              CHANNELS 3 Zrotation Yrotation Xrotation
              JOINT Head
              {
                OFFSET 6.432774 0.0 0.0
                CHANNELS 3 Zrotation Yrotation Xrotation
                JOINT HeadEnd
                {
                  OFFSET 16.169773 0.06451 0.00362
                  CHANNELS 3 Zrotation Yrotation Xrotation
                }
                JOINT Jaw
                {
                  OFFSET 0.108741 3.12938 0.002639
                  CHANNELS 3 Zrotation Yrotation Xrotation
                }
                JOINT LeftEye
                {
                  OFFSET 4.45173 8.166359 3.206392
                  CHANNELS 3 Zrotation Yrotation Xrotation
                }
                JOINT RightEye
                {
                  OFFSET 4.436895 8.135758 -3.222429
                  CHANNELS 3 Zrotation Yrotation Xrotation
                }
              }
            }
          }
          JOINT LeftShoulder
          {
            OFFSET 23.218927 5.195579 1.621656
            CHANNELS 3 Zrotation Yrotation Xrotation
            JOINT LeftArm
            {
              OFFSET 15.902118 2e-06 -2e-06
              CHANNELS 3 Zrotation Yrotation Xrotation
              JOINT LeftForeArm
              {
                OFFSET 28.739307 0.0 -1e-06
                CHANNELS 3 Zrotation Yrotation Xrotation
                JOINT LeftHand
                {
                  OFFSET 27.093981 -4e-06 0.0
                  CHANNELS 3 Zrotation Yrotation Xrotation
                  JOINT LeftHandThumb1
                  {
                    OFFSET 2.276781 3.380274 0.83384
                    CHANNELS 3 Zrotation Yrotation Xrotation
                    JOINT LeftHandThumb2
                    {
                      OFFSET 4.705309 -1e-06 -1e-06
                      CHANNELS 3 Zrotation Yrotation Xrotation
                      JOINT LeftHandThumb3
                      {
                        OFFSET 2.798515 0.0 3e-06
                        CHANNELS 3 Zrotation Yrotation Xrotation
                        JOINT LeftHandThumbEnd
                        {
                          OFFSET 3.180793 4e-06 -4e-06
                          CHANNELS 3 Zrotation Yrotation Xrotation
                        }
                      }
                    }
                  }
                  JOINT LeftHandIndex1
                  {
                    OFFSET 3.247786 2.352677 0.137192
                    CHANNELS 3 Zrotation Yrotation Xrotation
                    JOINT LeftHandIndex2
                    {
                      OFFSET 6.367095 1e-06 0.0
                      CHANNELS 3 Zrotation Yrotation Xrotation
                      JOINT LeftHandIndex3
                      {
                        OFFSET 3.662364 0.0 0.0
                        CHANNELS 3 Zrotation Yrotation Xrotation
                        JOINT LeftHandIndex4
                        {
                          OFFSET 2.329242 4e-06 -4e-06
                          CHANNELS 3 Zrotation Yrotation Xrotation
                          JOINT LeftHandIndexEnd
                          {
                            OFFSET 2.767823 1e-06 0.0
                            CHANNELS 3 Zrotation Yrotation Xrotation
                          }
                        }
                      }
                    }
                  }
                  JOINT LeftHandMiddle1
                  {
                    OFFSET 3.163612 0.945023 -0.406112
                    CHANNELS 3 Zrotation Yrotation Xrotation
                    JOINT LeftHandMiddle2
                    {
                      OFFSET 6.276789 3e-06 0.0
                      CHANNELS 3 Zrotation Yrotation Xrotation
                      JOINT LeftHandMiddle3
                      {
                        OFFSET 4.35652 -1e-06 4e-06
                        CHANNELS 3 Zrotation Yrotation Xrotation
                        JOINT LeftHandMiddle4
                        {
                          OFFSET 2.996877 0.0 8e-06
                          CHANNELS 3 Zrotation Yrotation Xrotation
                          JOINT LeftHandMiddleEnd
                          {
                            OFFSET 2.323256 3e-06 -4e-06
                            CHANNELS 3 Zrotation Yrotation Xrotation
                          }
                        }
                      }
                    }
                  }
                  JOINT LeftHandRing1
                  {
                    OFFSET 2.882606 -0.309162 0.107445
                    CHANNELS 3 Zrotation Yrotation Xrotation
                    JOINT LeftHandRing2
                    {
                      OFFSET 6.033198 0.0 4e-06
                      CHANNELS 3 Zrotation Yrotation Xrotation
                      JOINT LeftHandRing3
                      {
                        OFFSET 4.350578 3e-06 0.0
                        CHANNELS 3 Zrotation Yrotation Xrotation
                        JOINT LeftHandRing4
                        {
                          OFFSET 2.651321 2e-06 -7e-06
                          CHANNELS 3 Zrotation Yrotation Xrotation
                          JOINT LeftHandRingEnd
                          {
                            OFFSET 1.937663 1e-06 -4e-06
                            CHANNELS 3 Zrotation Yrotation Xrotation
                          }
                        }
                      }
                    }
                  }
                  JOINT LeftHandPinky1
                  {
                    OFFSET 2.865315 -1.525436 0.575687
                    CHANNELS 3 Zrotation Yrotation Xrotation
                    JOINT LeftHandPinky2
                    {
                      OFFSET 5.54936 1e-06 -8e-06
                      CHANNELS 3 Zrotation Yrotation Xrotation
                      JOINT LeftHandPinky3
                      {
                        OFFSET 3.070974 0.0 -4e-06
                        CHANNELS 3 Zrotation Yrotation Xrotation
                        JOINT LeftHandPinky4
                        {
                          OFFSET 1.549672 1e-06 0.0
                          CHANNELS 3 Zrotation Yrotation Xrotation
                          JOINT LeftHandPinkyEnd
                          {
                            OFFSET 1.952123 0.0 0.0
                            CHANNELS 3 Zrotation Yrotation Xrotation
                          }
                        }
                      }
                    }
                  }
                }
              }
            }
          }
          JOINT RightShoulder
          {
            OFFSET 23.161716 5.296122 -1.380114
            CHANNELS 3 Zrotation Yrotation Xrotation
            JOINT RightArm
            {
              OFFSET -16.027195 -2e-06 1.1e-05
              CHANNELS 3 Zrotation Yrotation Xrotation
              JOINT RightForeArm
              {
                OFFSET -28.736639 4e-06 2e-06
                CHANNELS 3 Zrotation Yrotation Xrotation
                JOINT RightHand
                {
                  OFFSET -27.133619 6e-06 0.0
                  CHANNELS 3 Zrotation Yrotation Xrotation
                  JOINT RightHandThumb1
                  {
                    OFFSET -2.274328 -3.351035 -0.83067
                    CHANNELS 3 Zrotation Yrotation Xrotation
                    JOINT RightHandThumb2
                    {
                      OFFSET -4.703594 -3e-06 2e-06
                      CHANNELS 3 Zrotation Yrotation Xrotation
                      JOINT RightHandThumb3
                      {
                        OFFSET -2.794935 -4e-06 -3e-06
                        CHANNELS 3 Zrotation Yrotation Xrotation
                        JOINT RightHandThumbEnd
                        {
                          OFFSET -3.183852 4e-06 1e-06
                          CHANNELS 3 Zrotation Yrotation Xrotation
                        }
                      }
                    }
                  }
                  JOINT RightHandIndex1
                  {
                    OFFSET -3.253496 -2.33755 -0.127667
                    CHANNELS 3 Zrotation Yrotation Xrotation
                    JOINT RightHandIndex2
                    {
                      OFFSET -6.344434 0.0 0.0
                      CHANNELS 3 Zrotation Yrotation Xrotation
                      JOINT RightHandIndex3
                      {
                        OFFSET -3.654871 0.0 -8e-06
                        CHANNELS 3 Zrotation Yrotation Xrotation
                        JOINT RightHandIndex4
                        {
                          OFFSET -2.327586 -1e-06 0.0
                          CHANNELS 3 Zrotation Yrotation Xrotation
                          JOINT RightHandIndexEnd
                          {
                            OFFSET -2.770001 3e-06 8e-06
                            CHANNELS 3 Zrotation Yrotation Xrotation
                          }
                        }
                      }
                    }
                  }
                  JOINT RightHandMiddle1
                  {
                    OFFSET -3.168223 -0.944764 0.411762
                    CHANNELS 3 Zrotation Yrotation Xrotation
                    JOINT RightHandMiddle2
                    {
                      OFFSET -6.266691 -1e-06 -4e-06
                      CHANNELS 3 Zrotation Yrotation Xrotation
                      JOINT RightHandMiddle3
                      {
                        OFFSET -4.348901 0.0 0.0
                        CHANNELS 3 Zrotation Yrotation Xrotation
                        JOINT RightHandMiddle4
                        {
                          OFFSET -3.00024 2e-06 -4e-06
                          CHANNELS 3 Zrotation Yrotation Xrotation
                          JOINT RightHandMiddleEnd
                          {
                            OFFSET -2.321477 -4e-06 -4e-06
                            CHANNELS 3 Zrotation Yrotation Xrotation
                          }
                        }
                      }
                    }
                  }
                  JOINT RightHandRing1
                  {
                    OFFSET -2.885654 0.293261 -0.119232
                    CHANNELS 3 Zrotation Yrotation Xrotation
                    JOINT RightHandRing2
                    {
                      OFFSET -6.032835 -1e-06 -4e-06
                      CHANNELS 3 Zrotation Yrotation Xrotation
                      JOINT RightHandRing3
                      {
                        OFFSET -4.33881 0.0 -4e-06
                        CHANNELS 3 Zrotation Yrotation Xrotation
                        JOINT RightHandRing4
                        {
                          OFFSET -2.654903 -4e-06 -4e-06
                          CHANNELS 3 Zrotation Yrotation Xrotation
                          JOINT RightHandRingEnd
                          {
                            OFFSET -1.935122 0.0 4e-06
                            CHANNELS 3 Zrotation Yrotation Xrotation
                          }
                        }
                      }
                    }
                  }
                  JOINT RightHandPinky1
                  {
                    OFFSET -2.866241 1.503904 -0.60527
                    CHANNELS 3 Zrotation Yrotation Xrotation
                    JOINT RightHandPinky2
                    {
                      OFFSET -5.553177 -2e-06 0.0
                      CHANNELS 3 Zrotation Yrotation Xrotation
                      JOINT RightHandPinky3
                      {
                        OFFSET -3.062664 -1e-06 -4e-06
                        CHANNELS 3 Zrotation Yrotation Xrotation
                        JOINT RightHandPinky4
                        {
                          OFFSET -1.546529 2e-06 4e-06
                          CHANNELS 3 Zrotation Yrotation Xrotation
                          JOINT RightHandPinkyEnd
                          {
                            OFFSET -1.952341 0.0 -4e-06
                            CHANNELS 3 Zrotation Yrotation Xrotation
                          }
                        }
                      }
                    }
                  }
                }
              }
            }
          }
        }
      }
    }
    JOINT LeftLeg
    {
      OFFSET -8.443107 2.567604 10.043214
      CHANNELS 3 Zrotation Yrotation Xrotation
      JOINT LeftShin
      {
        OFFSET 43.229198 1e-06 -1e-06
        CHANNELS 3 Zrotation Yrotation Xrotation
        JOINT LeftFoot
        {
          OFFSET 42.298611 1e-06 1e-06
          CHANNELS 3 Zrotation Yrotation Xrotation
          JOINT LeftToeBase
          {
            OFFSET 14.165858 1e-06 0.0
            CHANNELS 3 Zrotation Yrotation Xrotation
            JOINT LeftToeEnd
            {
              OFFSET 6.7141 -0.234461 0.0
              CHANNELS 3 Zrotation Yrotation Xrotation
            }
          }
        }
      }
    }
    JOINT RightLeg
    {
      OFFSET -8.303923 2.592729 -10.047278
      CHANNELS 3 Zrotation Yrotation Xrotation
      JOINT RightShin
      {
        OFFSET -43.369682 0.0 1e-06
        CHANNELS 3 Zrotation Yrotation Xrotation
        JOINT RightFoot
        {
          OFFSET -42.260784 4e-06 2e-06
          CHANNELS 3 Zrotation Yrotation Xrotation
          JOINT RightToeBase
          {
            OFFSET -14.222245 -2e-06 -1e-06
            CHANNELS 3 Zrotation Yrotation Xrotation
            JOINT RightToeEnd
            {
              OFFSET -6.660062 0.232574 -2e-06
              CHANNELS 3 Zrotation Yrotation Xrotation
            }
          }
        }
      }
    }
  }
}
MOTION
Frames: 4
Frame Time: 0.03333333333333333
0.0 0.0 0.0 0.0 -0.0 0.0 58.549847 95.688995 212.510345 92.735428 17.983568 106.083939 -7.600409 -0.01129 0.169161 -14.007064 -0.527147 -0.5629 17.984381 -2.676999 -1.835867 35.058964 6.170545 2.481998 -2.957565 -0.800424 -0.617422 -20.131777 0.198993 -2.682236 5e-06 0.0 0.0 -0.023759 0.000813 0.083721 0.00681 -0.041732 0.123083 0.077501 0.03759 0.0498 -100.701248 -76.341278 111.812744 49.105465 -59.818123 -34.735081 33.51371 0.255193 0.213513 -2.343065 -5.895016 -7.123429 17.636627 -26.322727 52.411201 -19.466663 -14.395598 29.410393 -0.0 -8.774819 -2e-06 15.637556 -18.03018 6.375267 -0.609774 -1.795655 -3.889329 -4.807088 -11.046811 -2.937852 4e-06 -20.976017 -0.0 -5.019969 -25.03356 -4.031883 6e-06 -0.0 -1e-06 -10.634535 -5.68697 -3.565588 10.573277 -17.922951 -3.113902 3e-06 -13.821211 0.0 -0.501777 -31.181505 -4.027019 -11.760214 -59.707226 7.200424 -13.982711 -7.150198 -2.875043 13.772727 -8.40149 -3.218242 0.347737 -34.211552 0.771653 -0.963029 -17.733366 2.621018 1e-06 0.0 1e-06 -17.346416 -20.095217 -4.201784 21.757555 -1.638374 3.866428 0.0 -6.338823 0.0 -1.697589 -22.591743 -6.194007 0.0 -4e-06 -2e-06 96.600327 -78.37915 94.428818 52.094971 -63.522514 -35.085289 32.565804 -0.539275 0.261732 -1.125697 -1.388489 -19.252865 22.182116 -20.375895 49.933315 -16.701811 -16.743525 28.476526 -2e-06 -12.6906 -1e-06 15.654543 -17.106985 2.69456 -0.105918 -1.513856 -4.275881 -5.039041 -5.612871 -2.953557 6e-06 -11.020523 -2e-06 -6.111296 -15.89533 -3.840469 0.0 -2e-06 1e-06 -10.283368 -5.680288 -4.341839 11.028292 -11.302406 -2.372633 -1.384268 -14.238579 -6.32012 -0.625436 -26.924181 -3.827601 -4.003515 -49.651608 -3.382289 -13.708521 -7.363475 -3.720939 18.141146 -14.052739 -3.242674 7e-06 -18.78727 -2e-06 -0.429711 -8.456039 2.555502 0.0 1e-06 1e-06 -15.923532 -20.094482 -5.473584 30.419207 -7.190826 1.735927 2e-06 -8.162927 -1e-06 -1.861902 -22.861469 -6.167941 0.0 -4e-06 -2e-06 -154.722931 -6.323336 -11.916324 20.757998 -0.182276 0.405964 -93.167603 2.658981 -3.940784 -7.03549 1.481729 2.110042 -0.999999 -1e-06 0.0 -4.263629 -12.220086 2.42346 4.400852 -0.161842 -0.240759 -64.176468 -5.044623 -12.392299 -8.991548 0.909548 1.62031 -1.000001 -0.0 0.0 
0.0 0.0 0.0 0.0 -0.0 0.0 58.278362 95.263016 214.690781 93.443649 17.523693 107.520393 -7.68292 0.132478 0.144958 -14.072486 -0.427994 -0.438651 17.956434 -2.732248 -1.769666 34.547611 6.143491 2.493336 -2.954175 -0.807825 -0.573939 -20.717905 0.198393 -2.881676 6e-06 -0.0 1e-06 -0.027415 0.007123 0.113019 0.003724 -0.023571 0.152945 0.069328 0.032557 0.078686 -100.419746 -76.22065 111.741226 49.811409 -60.023903 -35.841209 33.260551 0.340144 0.205693 -2.270863 -5.47713 -7.306552 17.636627 -26.322729 52.41119 -19.466654 -14.395594 29.410385 0.0 -8.774819 -2e-06 15.656507 -17.897909 6.316482 -0.609776 -1.795654 -3.889327 -4.807089 -11.046811 -2.937851 2e-06 -20.976013 2e-06 -5.019974 -25.033558 -4.03188 7e-06 -2e-06 -1e-06 -10.634534 -5.68697 -3.565587 10.573275 -17.922947 -3.113899 1e-06 -13.821208 2e-06 -0.501782 -31.181498 -4.027011 -11.759948 -59.70179 7.192706 -13.982713 -7.150198 -2.875042 13.772729 -8.40149 -3.21824 0.347731 -34.211555 0.771658 -0.963028 -17.733366 2.621017 0.0 1e-06 -0.0 -17.346422 -20.095217 -4.201779 21.757557 -1.638374 3.866428 -0.0 -6.338823 1e-06 -1.697591 -22.591743 -6.194005 1e-06 -5e-06 -2e-06 99.203804 -78.470192 91.850578 52.907017 -63.417686 -35.53685 32.58234 -0.532696 0.273302 -1.145548 -1.683325 -18.406576 22.182114 -20.375898 49.933319 -16.701809 -16.743528 28.476522 -1e-06 -12.6906 -0.0 15.549766 -17.124533 2.693339 -0.105915 -1.513855 -4.275882 -5.039041 -5.61287 -2.953556 4e-06 -11.02052 -1e-06 -6.111298 -15.895328 -3.840468 1e-06 -1e-06 0.0 -10.283365 -5.680287 -4.341839 11.028291 -11.302402 -2.372632 -1.38427 -14.238577 -6.32012 -0.625437 -26.924191 -3.8276 -4.000226 -49.587757 -3.420699 -13.708523 -7.363474 -3.720939 18.14115 -14.052738 -3.242675 7e-06 -18.787268 -2e-06 -0.429714 -8.456043 2.555503 1e-06 1e-06 1e-06 -15.923532 -20.094482 -5.473584 30.41921 -7.190824 1.735924 3e-06 -8.162926 -0.0 -1.861903 -22.861473 -6.167938 -1e-06 -2e-06 -3e-06 -153.929016 -6.760689 -11.202407 20.931335 -0.189527 0.445878 -93.375366 3.135905 -4.432544 -7.351907 1.514982 2.116632 -0.999999 0.0 0.0 -5.106152 -12.989894 1.451108 6.008738 -0.179452 -0.272352 -65.491219 -5.709825 -11.896117 -9.108312 0.863965 1.62677 -1.000001 0.0 -0.0 
0.0 0.0 0.0 0.0 -0.0 0.0 57.879627 94.868507 216.99057 94.129524 17.011528 108.899048 -7.772356 0.284647 0.103717 -14.166614 -0.332894 -0.317064 17.980682 -2.791 -1.718139 34.032719 6.128719 2.508295 -2.961192 -0.809709 -0.544899 -21.284727 0.157997 -3.002091 7e-06 0.0 0.0 -0.025297 0.01474 0.149707 -0.004981 -0.002042 0.187377 0.051827 0.027213 0.117259 -100.205467 -76.075005 111.702492 50.1259 -60.363968 -36.681763 33.083714 0.52126 0.241011 -2.196397 -5.016189 -7.548584 17.636625 -26.322737 52.411182 -19.466652 -14.395597 29.410385 -0.0 -8.774817 -2e-06 15.689682 -17.719782 6.244141 -0.609776 -1.795655 -3.889325 -4.807087 -11.046809 -2.93785 2e-06 -20.976015 3e-06 -5.019975 -25.033556 -4.031877 6e-06 0.0 1e-06 -10.634534 -5.68697 -3.565585 10.573274 -17.922947 -3.1139 1e-06 -13.821206 2e-06 -0.501781 -31.181498 -4.027013 -11.71895 -59.679516 7.202289 -13.982714 -7.150196 -2.87504 13.772729 -8.401489 -3.218241 0.347729 -34.211544 0.77166 -0.963031 -17.733366 2.62102 2e-06 -0.0 0.0 -17.346416 -20.095215 -4.201779 21.757563 -1.638374 3.866427 1e-06 -6.338825 1e-06 -1.697592 -22.591747 -6.194003 -0.0 -2e-06 -2e-06 102.200691 -78.517105 88.857819 53.945816 -63.362614 -35.775963 32.49387 -0.41112 0.281636 -1.140249 -1.919641 -17.691996 22.182119 -20.375898 49.933327 -16.701815 -16.743528 28.476534 -2e-06 -12.690603 -2e-06 15.430649 -17.125626 2.711655 -0.10592 -1.513857 -4.275882 -5.039041 -5.612871 -2.953557 7e-06 -11.020525 -2e-06 -6.111297 -15.895338 -3.840471 1e-06 0.0 -0.0 -10.283377 -5.68029 -4.341839 11.028296 -11.302406 -2.372633 -1.384271 -14.238582 -6.320124 -0.625435 -26.924191 -3.827603 -4.00769 -49.492897 -3.440087 -13.708527 -7.363478 -3.720939 18.141155 -14.052742 -3.242675 7e-06 -18.787275 -4e-06 -0.429711 -8.456044 2.555503 1e-06 -0.0 0.0 -15.923539 -20.094486 -5.473586 30.419222 -7.190827 1.735927 3e-06 -8.162927 -1e-06 -1.861902 -22.861473 -6.167944 1e-06 -2e-06 -2e-06 -152.937424 -7.304332 -10.59299 20.694046 -0.20659 0.506298 -93.112869 3.662213 -5.078775 -7.926037 1.562541 2.121818 -0.999999 -1e-06 0.0 -5.716572 -13.564659 0.391544 7.833452 -0.172644 -0.26774 -66.515533 -6.243949 -11.307615 -9.236115 0.823451 1.635716 -1.000001 -0.0 0.0 
0.0 0.0 0.0 0.0 -0.0 0.0 57.325573 94.562668 219.478745 94.712402 16.475433 110.180931 -7.888265 0.484808 0.05833 -14.272953 -0.246304 -0.20589 18.072226 -2.891912 -1.737597 33.530811 6.234732 2.432344 -2.952031 -0.864134 -0.402226 -21.771921 0.025619 -3.115276 6e-06 0.0 0.0 -0.031164 0.010586 0.128196 -0.018773 0.001342 0.159009 0.024261 0.016631 0.102438 -100.075546 -75.949326 111.837952 50.152573 -60.620342 -37.081245 32.877449 0.899989 0.352562 -1.998157 -4.528436 -8.244613 17.636631 -26.322729 52.411186 -19.466663 -14.395598 29.410389 -1e-06 -8.774822 -2e-06 15.868303 -17.592501 6.087796 -0.609775 -1.795654 -3.889327 -4.807089 -11.046813 -2.93785 4e-06 -20.976019 -2e-06 -5.019969 -25.033562 -4.031884 5e-06 -1e-06 -0.0 -10.634533 -5.686972 -3.565585 10.573277 -17.922951 -3.113902 1e-06 -13.821209 1e-06 -0.501777 -31.181505 -4.027016 -11.669209 -59.690392 7.057571 -13.982714 -7.150198 -2.87504 13.772733 -8.401493 -3.218243 0.347735 -34.211555 0.771652 -0.963026 -17.73337 2.621017 0.0 -1e-06 -0.0 -17.34642 -20.095221 -4.201779 21.757561 -1.638375 3.866428 1e-06 -6.338824 1e-06 -1.697589 -22.591749 -6.194007 -0.0 -3e-06 -2e-06 104.356178 -78.524139 86.571182 55.053905 -63.293697 -35.961876 32.280396 -0.349715 0.292991 -1.148986 -2.133954 -17.158607 22.182114 -20.375895 49.933327 -16.701817 -16.74353 28.476534 -2e-06 -12.6906 0.0 15.32295 -17.199829 2.715677 -0.105919 -1.513856 -4.275882 -5.03904 -5.612871 -2.953557 2e-06 -11.020525 -2e-06 -6.111296 -15.895338 -3.84047 -1e-06 -2e-06 0.0 -10.283371 -5.680289 -4.341838 11.028295 -11.302406 -2.372634 -1.384269 -14.238583 -6.320121 -0.625437 -26.924191 -3.827601 -4.136491 -49.346889 -3.56149 -13.708526 -7.363476 -3.72094 18.14115 -14.052743 -3.242675 7e-06 -18.787271 -4e-06 -0.42971 -8.456041 2.555502 -0.0 1e-06 3e-06 -15.923536 -20.094484 -5.473584 30.419218 -7.190827 1.735924 4e-06 -8.162926 -0.0 -1.861902 -22.861471 -6.167943 -0.0 -2e-06 -2e-06 -151.672043 -8.047591 -10.03179 19.981846 -0.215916 0.493288 -91.988228 4.082501 -5.849255 -8.419927 1.602265 2.161969 -0.999999 -1e-06 -0.0 -6.096231 -13.795877 -0.753514 9.872186 -0.143524 -0.192017 -66.978218 -6.581158 -10.728811 -9.18396 0.809194 1.641822 -1.000001 0.0 -0.0 
